{
  "accessors": [
    {
      "bufferView": 2,
      "byteOffset": 0,
      "componentType": 5126,
      "count": 6024,
      "max": [1, 1, 1, 1],
      "min": [
        0.006584956776350737,
        0.006584956776350737,
        0.006584956776350737,
        1
      ],
      "name": "accessor_color_m0-PolyPaper10_-215984",
      "type": "VEC4"
    },
    {
      "bufferView": 0,
      "byteOffset": 0,
      "componentType": 5123,
      "count": 9318,
      "max": [6023],
      "min": [0],
      "name": "accessor_indices_0_m0-PolyPaper10_-215984",
      "type": "SCALAR"
    },
    {
      "bufferView": 1,
      "byteOffset": 72288,
      "componentType": 5126,
      "count": 6024,
      "max": [0.9994584, 0.9996569, 0.9999956],
      "min": [-0.9962299999999999, -0.9996568, -0.9999957],
      "name": "accessor_normal_m0-PolyPaper10_-215984",
      "type": "VEC3"
    },
    {
      "bufferView": 1,
      "byteOffset": 0,
      "componentType": 5126,
      "count": 6024,
      "max": [-0.1327497, 2.128347, 1.710816],
      "min": [-1.34916, 1.686485, 0.4144037],
      "name": "accessor_position_m0-PolyPaper10_-215984",
      "type": "VEC3"
    }
  ],
  "asset": {
    "copyright": "Unknown",
    "generator": "glTF 1-to-2 Upgrader for Google Blocks",
    "version": "2.0"
  },
  "bufferViews": [
    {
      "buffer": 0,
      "byteLength": 18636,
      "byteOffset": 0,
      "name": "ushortBufferView",
      "target": 34963
    },
    {
      "buffer": 0,
      "byteLength": 144576,
      "byteOffset": 18636,
      "byteStride": 12,
      "name": "vec3BufferView",
      "target": 34962
    },
    {
      "buffer": 0,
      "byteLength": 96384,
      "byteOffset": 163212,
      "byteStride": 16,
      "name": "vec4BufferView",
      "target": 34962
    }
  ],
  "buffers": [
    {
      "byteLength": 259596,
      "name": "croc",
      "uri": "croc.bin"
    }
  ],
  "materials": [
    {
      "alphaMode": "OPAQUE",
      "doubleSided": false,
      "name": "BlocksPaper",
      "pbrMetallicRoughness": {
        "baseColorFactor": [1, 1, 1, 1],
        "metallicFactor": 0,
        "roughnessFactor": 0.6
      }
    },
    {
      "alphaMode": "BLEND",
      "doubleSided": false,
      "name": "BlocksGlass",
      "pbrMetallicRoughness": {
        "baseColorFactor": [0.2, 0.2, 1, 0.3],
        "metallicFactor": 1,
        "roughnessFactor": 0.4
      }
    },
    {
      "alphaMode": "OPAQUE",
      "doubleSided": true,
      "name": "BlocksGem",
      "pbrMetallicRoughness": {
        "baseColorFactor": [1, 0.4, 1, 1],
        "metallicFactor": 0,
        "roughnessFactor": 0.1
      }
    }
  ],
  "meshes": [
    {
      "name": "mesh_m0-PolyPaper10_-215984",
      "primitives": [
        {
          "attributes": {
            "COLOR_0": 0,
            "NORMAL": 2,
            "POSITION": 3
          },
          "indices": 1,
          "material": 0,
          "mode": 4
        }
      ]
    }
  ],
  "nodes": [
    {
      "matrix": [1, 0, 0, 0, 0, 1, 0, 0, 0, 0, 1, 0, 0, 0, 0, 1],
      "mesh": 0,
      "name": "node_MeshObject2144919808-PolyPaper10"
    }
  ],
  "scene": 0,
  "scenes": [
    {
      "extras": {},
      "name": "defaultScene",
      "nodes": [0]
    }
  ]
}
